<svg width="200" height="135" viewBox="0 0 200 135" fill="none" xmlns="http://www.w3.org/2000/svg">
<path d="M29.8518 108.073C29.4838 107.153 29.2538 106.302 29.1618 105.52C29.0698 104.784 29.0008 103.634 28.9548 102.07C30.6108 101.564 31.9678 100.897 33.0258 100.069C34.0838 99.287 35.0038 98.252 35.7858 96.964L34.0608 95.998C33.1868 97.516 31.8528 98.735 30.0588 99.655C28.2648 100.529 25.4588 100.966 21.6408 100.966C21.1808 100.966 20.4448 100.943 19.4328 100.897C18.4208 100.897 17.4318 100.874 16.4658 100.828C15.4998 100.828 14.8328 100.828 14.4648 100.828C12.3488 100.828 10.6238 100.851 9.28978 100.897C7.95578 100.989 6.89778 101.081 6.11578 101.173C5.74778 100.253 5.47178 99.011 5.28778 97.447C5.10378 95.837 4.98878 94.112 4.94278 92.272C4.94278 90.432 5.01178 88.684 5.14978 87.028C5.28778 85.326 5.51778 83.969 5.83978 82.957C8.96778 80.289 11.5438 77.713 13.5678 75.229C15.6378 72.745 17.3628 70.399 18.7428 68.191C20.1688 65.937 21.3878 63.867 22.3998 61.981C23.4578 60.049 24.5158 58.347 25.5738 56.875C26.6778 55.357 27.9428 54.092 29.3688 53.08C30.8408 52.068 32.6808 51.355 34.8888 50.941C36.2688 50.665 37.8328 50.573 39.5808 50.665C41.3748 50.711 43.2378 50.826 45.1698 51.01C47.1018 51.148 49.0108 51.217 50.8968 51.217C53.8868 51.217 56.4858 51.194 58.6938 51.148C60.9478 51.102 62.5808 50.987 63.5928 50.803C64.0068 52.091 64.3058 53.356 64.4898 54.598C64.7198 55.84 64.8348 57.22 64.8348 58.738C64.8348 60.348 64.6968 61.751 64.4208 62.947C64.1908 64.097 63.8918 65.247 63.5238 66.397C63.2018 67.501 62.9028 68.789 62.6268 70.261C62.3968 71.687 62.2818 73.504 62.2818 75.712C62.2818 76.54 62.3508 77.483 62.4888 78.541C62.6268 79.553 62.9718 80.496 63.5238 81.37C64.0758 82.198 64.9498 82.75 66.1458 83.026C66.6058 83.762 66.9508 84.889 67.1808 86.407C67.4108 87.925 67.5258 89.558 67.5258 91.306C67.5718 93.054 67.5028 94.71 67.3188 96.274C67.1348 97.838 66.8358 99.034 66.4218 99.862C65.4098 99.908 64.6278 100.414 64.0758 101.38C63.5238 102.392 63.1328 103.519 62.9028 104.761C62.6728 106.003 62.5578 107.038 62.5578 107.866C61.1318 107.82 59.1308 107.659 56.5548 107.383C54.0248 107.153 51.1498 107.038 47.9298 107.038C45.7218 107.038 43.4678 107.084 41.1678 107.176C38.8678 107.314 36.7288 107.452 34.7508 107.59C32.7728 107.774 31.1398 107.935 29.8518 108.073ZM29.8518 80.68H33.4398V74.263H29.8518V80.68ZM101.738 102.415C90.5139 102.415 82.2109 100.253 76.8289 95.929C71.4929 91.605 68.8249 85.211 68.8249 76.747C68.8249 67.409 71.5389 60.555 76.9669 56.185C82.3949 51.815 90.7669 49.63 102.083 49.63C110.041 49.63 116.481 50.596 121.403 52.528C126.371 54.414 130.005 57.243 132.305 61.015C134.605 64.787 135.755 69.479 135.755 75.091C135.755 84.521 132.972 91.444 127.406 95.86C121.886 100.23 113.33 102.415 101.738 102.415ZM100.358 79.783H104.222V72.262H100.358V79.783ZM161.248 108.073C160.88 107.153 160.65 106.302 160.558 105.52C160.466 104.784 160.397 103.634 160.351 102.07C162.007 101.564 163.364 100.897 164.422 100.069C165.48 99.287 166.4 98.252 167.182 96.964L165.457 95.998C164.583 97.516 163.249 98.735 161.455 99.655C159.661 100.529 156.855 100.966 153.037 100.966C152.577 100.966 151.841 100.943 150.829 100.897C149.817 100.897 148.828 100.874 147.862 100.828C146.896 100.828 146.229 100.828 145.861 100.828C143.745 100.828 142.02 100.851 140.686 100.897C139.352 100.989 138.294 101.081 137.512 101.173C137.144 100.253 136.868 99.011 136.684 97.447C136.5 95.837 136.385 94.112 136.339 92.272C136.339 90.432 136.408 88.684 136.546 87.028C136.684 85.326 136.914 83.969 137.236 82.957C140.364 80.289 142.94 77.713 144.964 75.229C147.034 72.745 148.759 70.399 150.139 68.191C151.565 65.937 152.784 63.867 153.796 61.981C154.854 60.049 155.912 58.347 156.97 56.875C158.074 55.357 159.339 54.092 160.765 53.08C162.237 52.068 164.077 51.355 166.285 50.941C167.665 50.665 169.229 50.573 170.977 50.665C172.771 50.711 174.634 50.826 176.566 51.01C178.498 51.148 180.407 51.217 182.293 51.217C185.283 51.217 187.882 51.194 190.09 51.148C192.344 51.102 193.977 50.987 194.989 50.803C195.403 52.091 195.702 53.356 195.886 54.598C196.116 55.84 196.231 57.22 196.231 58.738C196.231 60.348 196.093 61.751 195.817 62.947C195.587 64.097 195.288 65.247 194.92 66.397C194.598 67.501 194.299 68.789 194.023 70.261C193.793 71.687 193.678 73.504 193.678 75.712C193.678 76.54 193.747 77.483 193.885 78.541C194.023 79.553 194.368 80.496 194.92 81.37C195.472 82.198 196.346 82.75 197.542 83.026C198.002 83.762 198.347 84.889 198.577 86.407C198.807 87.925 198.922 89.558 198.922 91.306C198.968 93.054 198.899 94.71 198.715 96.274C198.531 97.838 198.232 99.034 197.818 99.862C196.806 99.908 196.024 100.414 195.472 101.38C194.92 102.392 194.529 103.519 194.299 104.761C194.069 106.003 193.954 107.038 193.954 107.866C192.528 107.82 190.527 107.659 187.951 107.383C185.421 107.153 182.546 107.038 179.326 107.038C177.118 107.038 174.864 107.084 172.564 107.176C170.264 107.314 168.125 107.452 166.147 107.59C164.169 107.774 162.536 107.935 161.248 108.073ZM161.248 80.68H164.836V74.263H161.248V80.68Z" fill="#FFD500"/>
<path d="M25.8907 103.073C25.5227 102.153 25.2927 101.302 25.2007 100.52C25.1087 99.784 25.0397 98.634 24.9937 97.07C26.6497 96.564 28.0067 95.897 29.0647 95.069C30.1227 94.287 31.0427 93.252 31.8247 91.964L30.0997 90.998C29.2257 92.516 27.8917 93.735 26.0977 94.655C24.3037 95.529 21.4977 95.966 17.6797 95.966C17.2197 95.966 16.4837 95.943 15.4717 95.897C14.4597 95.897 13.4707 95.874 12.5047 95.828C11.5387 95.828 10.8717 95.828 10.5037 95.828C8.38769 95.828 6.66269 95.851 5.32869 95.897C3.99469 95.989 2.93669 96.081 2.15469 96.173C1.78669 95.253 1.51069 94.011 1.32669 92.447C1.14269 90.837 1.02769 89.112 0.981688 87.272C0.981688 85.432 1.05069 83.684 1.18869 82.028C1.32669 80.326 1.55669 78.969 1.87869 77.957C5.00669 75.289 7.58269 72.713 9.60669 70.229C11.6767 67.745 13.4017 65.399 14.7817 63.191C16.2077 60.937 17.4267 58.867 18.4387 56.981C19.4967 55.049 20.5547 53.347 21.6127 51.875C22.7167 50.357 23.9817 49.092 25.4077 48.08C26.8797 47.068 28.7197 46.355 30.9277 45.941C32.3077 45.665 33.8717 45.573 35.6197 45.665C37.4137 45.711 39.2767 45.826 41.2087 46.01C43.1407 46.148 45.0497 46.217 46.9357 46.217C49.9257 46.217 52.5247 46.194 54.7327 46.148C56.9867 46.102 58.6197 45.987 59.6317 45.803C60.0457 47.091 60.3447 48.356 60.5287 49.598C60.7587 50.84 60.8737 52.22 60.8737 53.738C60.8737 55.348 60.7357 56.751 60.4597 57.947C60.2297 59.097 59.9307 60.247 59.5627 61.397C59.2407 62.501 58.9417 63.789 58.6657 65.261C58.4357 66.687 58.3207 68.504 58.3207 70.712C58.3207 71.54 58.3897 72.483 58.5277 73.541C58.6657 74.553 59.0107 75.496 59.5627 76.37C60.1147 77.198 60.9887 77.75 62.1847 78.026C62.6447 78.762 62.9897 79.889 63.2197 81.407C63.4497 82.925 63.5647 84.558 63.5647 86.306C63.6107 88.054 63.5417 89.71 63.3577 91.274C63.1737 92.838 62.8747 94.034 62.4607 94.862C61.4487 94.908 60.6667 95.414 60.1147 96.38C59.5627 97.392 59.1717 98.519 58.9417 99.761C58.7117 101.003 58.5967 102.038 58.5967 102.866C57.1707 102.82 55.1697 102.659 52.5937 102.383C50.0637 102.153 47.1887 102.038 43.9687 102.038C41.7607 102.038 39.5067 102.084 37.2067 102.176C34.9067 102.314 32.7677 102.452 30.7897 102.59C28.8117 102.774 27.1787 102.935 25.8907 103.073ZM25.8907 75.68H29.4787V69.263H25.8907V75.68ZM97.7768 97.415C86.5528 97.415 78.2498 95.253 72.8678 90.929C67.5318 86.605 64.8638 80.211 64.8638 71.747C64.8638 62.409 67.5778 55.555 73.0058 51.185C78.4338 46.815 86.8058 44.63 98.1218 44.63C106.08 44.63 112.52 45.596 117.442 47.528C122.41 49.414 126.044 52.243 128.344 56.015C130.644 59.787 131.794 64.479 131.794 70.091C131.794 79.521 129.011 86.444 123.445 90.86C117.925 95.23 109.369 97.415 97.7768 97.415ZM96.3968 74.783H100.261V67.262H96.3968V74.783ZM157.287 103.073C156.919 102.153 156.689 101.302 156.597 100.52C156.505 99.784 156.436 98.634 156.39 97.07C158.046 96.564 159.403 95.897 160.461 95.069C161.519 94.287 162.439 93.252 163.221 91.964L161.496 90.998C160.622 92.516 159.288 93.735 157.494 94.655C155.7 95.529 152.894 95.966 149.076 95.966C148.616 95.966 147.88 95.943 146.868 95.897C145.856 95.897 144.867 95.874 143.901 95.828C142.935 95.828 142.268 95.828 141.9 95.828C139.784 95.828 138.059 95.851 136.725 95.897C135.391 95.989 134.333 96.081 133.551 96.173C133.183 95.253 132.907 94.011 132.723 92.447C132.539 90.837 132.424 89.112 132.378 87.272C132.378 85.432 132.447 83.684 132.585 82.028C132.723 80.326 132.953 78.969 133.275 77.957C136.403 75.289 138.979 72.713 141.003 70.229C143.073 67.745 144.798 65.399 146.178 63.191C147.604 60.937 148.823 58.867 149.835 56.981C150.893 55.049 151.951 53.347 153.009 51.875C154.113 50.357 155.378 49.092 156.804 48.08C158.276 47.068 160.116 46.355 162.324 45.941C163.704 45.665 165.268 45.573 167.016 45.665C168.81 45.711 170.673 45.826 172.605 46.01C174.537 46.148 176.446 46.217 178.332 46.217C181.322 46.217 183.921 46.194 186.129 46.148C188.383 46.102 190.016 45.987 191.028 45.803C191.442 47.091 191.741 48.356 191.925 49.598C192.155 50.84 192.27 52.22 192.27 53.738C192.27 55.348 192.132 56.751 191.856 57.947C191.626 59.097 191.327 60.247 190.959 61.397C190.637 62.501 190.338 63.789 190.062 65.261C189.832 66.687 189.717 68.504 189.717 70.712C189.717 71.54 189.786 72.483 189.924 73.541C190.062 74.553 190.407 75.496 190.959 76.37C191.511 77.198 192.385 77.75 193.581 78.026C194.041 78.762 194.386 79.889 194.616 81.407C194.846 82.925 194.961 84.558 194.961 86.306C195.007 88.054 194.938 89.71 194.754 91.274C194.57 92.838 194.271 94.034 193.857 94.862C192.845 94.908 192.063 95.414 191.511 96.38C190.959 97.392 190.568 98.519 190.338 99.761C190.108 101.003 189.993 102.038 189.993 102.866C188.567 102.82 186.566 102.659 183.99 102.383C181.46 102.153 178.585 102.038 175.365 102.038C173.157 102.038 170.903 102.084 168.603 102.176C166.303 102.314 164.164 102.452 162.186 102.59C160.208 102.774 158.575 102.935 157.287 103.073ZM157.287 75.68H160.875V69.263H157.287V75.68Z" fill="#8332AC"/>
</svg>
